<svg id="bfc59778-adb9-4ded-81d5-12977ec092f3" xmlns="http://www.w3.org/2000/svg" xmlns:xlink="http://www.w3.org/1999/xlink" viewBox="0 0 2004.17 1003.19"><defs><style>.cls-1{fill:#dffeff;}.cls-2,.cls-6{fill:#f7932e;}.cls-16,.cls-2,.cls-8,.cls-9{opacity:0.1;}.cls-10,.cls-16,.cls-2,.cls-3,.cls-7,.cls-8{isolation:isolate;}.cls-3{fill:#ff5111;opacity:0.15;}.cls-4{fill:#d48a9b;}.cls-5{fill:#67647e;}.cls-10,.cls-7{fill:#dda2a6;}.cls-7{opacity:0.46;}.cls-10{opacity:0.2;}.cls-11{fill:#e1dee5;}.cls-12{fill:#020a56;}.cls-13{fill:#b1b8e5;}.cls-14{fill:#2c45bf;}.cls-15{fill:#d9d6df;}.cls-16,.cls-25{fill:#fff;}.cls-17{fill:url(#linear-gradient);}.cls-18{fill:#a0616a;}.cls-19{fill:#0d0249;}.cls-20{fill:#444053;}.cls-21{fill:#f3f5f9;}.cls-22{fill:#f9b235;}.cls-23{fill:#d1d9ec;}.cls-24{fill:#dfe6f5;}.cls-26{fill:none;}.cls-27{fill:#585268;}.cls-28{fill:#746d83;}.cls-29{fill:#4c4c56;}.cls-30{fill:#d4dfec;}</style><linearGradient id="linear-gradient" x1="8791.3" y1="12510.69" x2="8791.3" y2="12988.64" gradientTransform="translate(10031.07 13148.98) rotate(180)" gradientUnits="userSpaceOnUse"><stop offset="0" stop-color="gray" stop-opacity="0.25"/><stop offset="0.54" stop-color="gray" stop-opacity="0.12"/><stop offset="1" stop-color="gray" stop-opacity="0.1"/></linearGradient></defs><title>header-background</title><path class="cls-1" d="M2006.79,0V790.29c-177.52,125.85-559.5,212.9-1002.08,212.9S180.13,916.13,2.62,790.28V0Z"/><path class="cls-2" d="M1899.73,305.6h-81.49v98.79h75.53c.2,1,.38,2,.61,3.05h-76.14v79.64l.38-.12q3.23-1.14,6.41-2.41l1.36-.56c2.18-.89,4.31-1.85,6.41-2.86.75-.35,1.5-.71,2.23-1.08a132.89,132.89,0,0,0,32.06-22.16c.28-.24.54-.49.78-.73,1.31-1.26,2.58-2.53,3.82-3.83l1.37-1.45c1.46-1.59,2.87-3.23,4.24-4.89l.61-.72a103.44,103.44,0,0,0,13.81-22.16c.11-.24.21-.49.32-.73,1.1-2.5,2.1-5,3-7.61.38-1.09.73-2.18,1-3.27.11-.33.2-.65.29-1,4.52-15.82,5.05-32.26,5.05-48.61V357.2c0-6.61-.1-13.3-.23-19.9,0-1.72-.08-3.43-.12-5.16q-.16-6.58-.48-13.15c0-1.23-.1-2.44-.18-3.64,0-.71-.08-1.41-.12-2.11C1900.08,310.65,1899.92,308.13,1899.73,305.6Z"/><path class="cls-2" d="M1818.24,195.64h44.7a304.75,304.75,0,0,0-23.8-29.11c-6.65-7.25-13.62-14.32-20.93-21.13Z"/><path class="cls-2" d="M1818.24,198.69V302.56h81.23a8,8,0,0,0-.08-.89c-.07-.82-.14-1.63-.22-2.46s-.19-1.91-.29-2.88-.22-2.08-.34-3.11-.23-2.08-.36-3.12-.26-2.07-.4-3.1-.28-2.07-.44-3.1-.24-1.7-.37-2.56c-.18-1.21-.38-2.42-.58-3.62,0-.18-.06-.36-.1-.53a223.91,223.91,0,0,0-6-26.09,180,180,0,0,0-10.08-26.47,192,192,0,0,0-15.17-26Z"/><path class="cls-3" d="M1624.71,305.6v98.79h174.06V305.6Zm0,101.84v66.89c20.27-6.48,43.44-3.87,64.44,1.45,16.27,4.13,32.11,9.75,48.35,13.79a175.76,175.76,0,0,0,22,4.17l1.83.19c.89.09,1.77.18,2.66.25l2.66.19h1.87l1.43.05h0c.68,0,1.37,0,2.06.05h5.69c.53,0,1,0,1.56-.05.83,0,1.66-.07,2.5-.13h0l1.56-.1,1.91-.15c1.36-.11,2.66-.25,4-.41.53-.06,1.08-.12,1.61-.2l.79-.1c1.33-.18,2.65-.39,4-.61,1-.15,2-.34,3-.51V407.44ZM1754.17,195.6v3.05H1624.71V302.56h174.06V198.69H1790v-3.05h8.73V128.5c-33.85-27.27-73.43-48.63-117.51-58.49a250,250,0,0,0-56.55-5.9V195.64Zm-398-.58.61.58h248.42V65c-44.23,3.68-87.36,18.54-122.13,43.15-16.7,11.82-31.71,25.82-50.46,34.89a78.89,78.89,0,0,1-31.55,8.15Zm-1.71-53.57V171l24-23.42c-8.93-3.09-16-5.2-24-6.1Zm-.8,371.87h.8v64.79q13.57-1,27.06-2.78A484.22,484.22,0,0,0,1498.78,545h0q6.08-2.43,12-5,4-1.73,7.91-3.54,5.91-2.71,11.72-5.58A411.23,411.23,0,0,0,1580,502.05c1-.66,2-1.34,3-2,2-1.36,3.91-2.73,5.84-4.11,1-.7,1.94-1.4,2.89-2.11l2-1.51c2-1.48,4-3,6-4.43h0c1.85-1.33,3.72-2.66,5.62-3.9V407.39H1405.65l.42-1.36c-.16.46-.3.88-.43,1.36h-51.18V513.3Zm.8-314.65V302.56h250.74V198.69Zm0,106.92v98.8h250.74V305.6Zm-50.14-161.1L1335,174.38V141.31Q1319.6,142.27,1304.36,144.49ZM1091.07,305.6v98.79H1335V305.6Zm59,244a453.06,453.06,0,0,0,115,27.28h.17q11.16,1.18,22.38,1.83h.27c15.68.88,31.42,1.09,47.14.5V407.44h-243.9l.88,113.73M1023.5,404.39h48.11V305.6h-19c-2,3.48-3.89,7-5.71,10.52-1,1.88-1.92,3.79-2.84,5.71C1031.5,347.83,1023.54,376.41,1023.5,404.39Zm0,3.05c.39,20.06,4.91,39.76,14.83,57.95,8.24,15.12,19.69,28.37,33.25,39.89V407.44Zm30.83-104.88h17.25V276.85a273.57,273.57,0,0,0-17.22,25.71ZM1162.4,195.64h166.84l.61-.59-.89-.89h0l-46.91-45.76a380,380,0,0,0-41.19,11c-1.28.41-2.55.88-3.82,1.28A373.44,373.44,0,0,0,1162.4,195.64Zm-71.33,57.94v49h244V201.51l-3.42-2.78H1157.49A334.63,334.63,0,0,0,1091.07,253.58Z"/><path class="cls-2" d="M1818.24,251.08v51.48h81.23a8,8,0,0,0-.08-.89c-.07-.82-.14-1.63-.22-2.46s-.19-1.91-.29-2.88-.22-2.08-.34-3.11-.23-2.08-.36-3.12-.26-2.07-.4-3.1-.28-2.07-.44-3.1-.24-1.7-.37-2.56c-.18-1.21-.38-2.42-.58-3.62,0-.18-.06-.36-.1-.53a223.91,223.91,0,0,0-6-26.09Z"/><path class="cls-2" d="M1899.73,305.6h-81.49v98.79h75.53c.2,1,.38,2,.61,3.05h-76.14v79.64l.38-.12q3.23-1.14,6.41-2.41l1.36-.56c2.18-.89,4.31-1.85,6.41-2.86.75-.35,1.5-.71,2.23-1.08a132.89,132.89,0,0,0,32.06-22.16c.28-.24.54-.49.78-.73,1.31-1.26,2.58-2.53,3.82-3.83l1.37-1.45c1.46-1.59,2.87-3.23,4.24-4.89l.61-.72a103.44,103.44,0,0,0,13.81-22.16c.11-.24.21-.49.32-.73,1.1-2.5,2.1-5,3-7.61.38-1.09.73-2.18,1-3.27.11-.33.2-.65.29-1,4.52-15.82,5.05-32.26,5.05-48.61V357.2c0-6.61-.1-13.3-.23-19.9,0-1.72-.08-3.43-.12-5.16q-.16-6.58-.48-13.15c0-1.23-.1-2.44-.18-3.64,0-.71-.08-1.41-.12-2.11C1900.08,310.65,1899.92,308.13,1899.73,305.6Z"/><polygon class="cls-2" points="1737.5 213.56 1737.5 302.56 1798.77 302.56 1798.77 213.56 1790.04 213.56 1790.04 183.42 1754.17 183.42 1754.17 213.56 1737.5 213.56"/><rect class="cls-2" x="1737.5" y="305.6" width="61.27" height="98.77"/><path class="cls-2" d="M1798.77,407.44h-61.26v82.13a179.29,179.29,0,0,0,22,4.17l1.83.19c.89.1,1.77.18,2.66.25l2.66.19h.27a9.55,9.55,0,0,1,1.19.05h.41a13.86,13.86,0,0,1,1.44.05h0c.69,0,1.38,0,2.07.06h5.69l1.56-.06c.82,0,1.67-.07,2.5-.13h0l1.54-.1,1.92-.15c1.35-.11,2.66-.24,4-.4l1.6-.21.79-.1c1.34-.18,2.66-.38,4-.61,1-.15,2-.33,3-.51Z"/><rect class="cls-2" x="1354.46" y="203.05" width="50.53" height="99.5"/><polygon class="cls-2" points="1354.46 305.6 1354.46 404.39 1605.24 404.39 1605.24 361.78 1471.66 361.78 1471.66 386.92 1404.98 386.92 1404.98 305.6 1354.46 305.6"/><path class="cls-2" d="M1353.66,513.35h.8v64.8q13.59-1,27.07-2.78A485,485,0,0,0,1498.78,545q16.17-6.48,31.67-14.13A411.3,411.3,0,0,0,1580,502.05q5.94-4,11.68-8.23c2.65-2,5.31-3.95,8-5.9,1.85-1.32,3.72-2.65,5.62-3.9V407.44H1405.66l.41-1.36c-.15.45-.3.89-.43,1.36h-51.18V513.31Z"/><path class="cls-2" d="M1222.69,195.64h32.92v-9.12h-14.75V159.44c-1.28.41-2.55.88-3.82,1.28v25.8h-14.35Z"/><path class="cls-2" d="M1143.36,302.56H1335V203.05h-8.49v73.56h-38.83V233.08h-32.07V198.69h-32.92v34.39h-32.07V276.6h-47.26Z"/><path class="cls-2" d="M1143.36,305.6v98.79H1335V305.6Zm6.69,244a453.14,453.14,0,0,0,115,27.28h.17q11.16,1.18,22.38,1.83h.27c15.68.88,31.42,1.09,47.14.5V407.44H1143.36v35h-52.29l.27,78.18"/><path class="cls-2" d="M1068.23,407.44h-44.69c.39,20.06,4.92,39.76,14.82,57.95,8.25,15.12,19.71,28.37,33.25,39.89V442.46h-3.38Z"/><path class="cls-2" d="M1023.5,404.39h44.73V321.83H1044C1031.5,347.83,1023.54,376.41,1023.5,404.39Z"/><rect class="cls-2" x="1354.46" y="230.71" width="27.07" height="31.2"/><rect class="cls-2" x="1354.46" y="295.38" width="27.07" height="7.18"/><rect class="cls-2" x="1354.46" y="305.6" width="27.07" height="20.96"/><rect class="cls-2" x="1354.46" y="360.03" width="27.07" height="31.2"/><rect class="cls-2" x="1354.46" y="424.7" width="27.07" height="31.2"/><path class="cls-2" d="M1354.46,513.31h0v7.24h27.07v-31.2h-27.07Z"/><path class="cls-2" d="M1354.46,554v24.1q13.59-1,27.07-2.78V554.06Z"/><rect class="cls-2" x="1489.24" y="402.09" width="116" height="2.29"/><rect class="cls-2" x="1489.24" y="407.44" width="116" height="8.78"/><rect class="cls-2" x="1489.24" y="445.01" width="116" height="14.13"/><path class="cls-2" d="M1489.24,487.92v14.13H1580q5.91-4,11.67-8.24c2.66-1.95,5.32-3.94,8-5.88Z"/><path class="cls-2" d="M1489.24,530.83V545h9.54q16.17-6.47,31.66-14.13Z"/><rect class="cls-2" x="1265.03" y="315.19" width="22.83" height="20.31"/><rect class="cls-2" x="1759.48" y="220.56" width="22.83" height="20.31"/><rect class="cls-2" x="1759.48" y="267.73" width="22.83" height="20.31"/><rect class="cls-2" x="1759.48" y="314.89" width="22.83" height="20.31"/><rect class="cls-2" x="1759.48" y="362.06" width="22.83" height="20.31"/><rect class="cls-2" x="1759.48" y="409.24" width="22.83" height="20.31"/><rect class="cls-2" x="1759.48" y="456.41" width="22.83" height="20.31"/><rect class="cls-2" x="1177.85" y="315.19" width="22.83" height="20.31"/><rect class="cls-2" x="1265.03" y="365.26" width="22.83" height="20.31"/><rect class="cls-2" x="1177.85" y="365.26" width="22.83" height="20.31"/><rect class="cls-2" x="1265.03" y="415.35" width="22.83" height="20.31"/><rect class="cls-2" x="1177.85" y="415.35" width="22.83" height="20.31"/><rect class="cls-2" x="1265.03" y="465.44" width="22.83" height="20.31"/><rect class="cls-2" x="1177.85" y="465.44" width="22.83" height="20.31"/><rect class="cls-2" x="1265.03" y="515.53" width="22.83" height="20.31"/><rect class="cls-2" x="1177.85" y="515.53" width="22.83" height="20.31"/><polygon class="cls-2" points="1287.85 578.71 1287.85 565.62 1265.03 565.62 1265.03 576.85 1287.85 578.71"/><path class="cls-2" d="M1818.24,277.15v11.62h78.15V277.15Zm70.36.74H1895v10.16h-6.41Zm-7.78,0h6.41v10.16h-6.43Zm-7.76,0h6.41v10.16h-6.41Zm-7.78,0h6.4v10.16h-6.4Zm-7.78,0H1864v10.16h-6.41Zm-7.78,0h6.41v10.16h-6.41Zm-7.78,0h6.41v10.16h-6.41Zm-7.77,0h6.4v10.16h-6.4Zm-7.78,0h6.41v10.16h-6.41Zm-7.77,0H1825v10.16h-6.41Z"/><path class="cls-2" d="M1818.24,311V322.6h78.15V311Zm70.36.73H1895v10.15h-6.41Zm-7.78,0h6.41v10.15h-6.43Zm-7.76,0h6.41v10.15h-6.41Zm-7.78,0h6.4v10.15h-6.4Zm-7.78,0H1864v10.15h-6.41Zm-7.78,0h6.41v10.15h-6.41Zm-7.78,0h6.41v10.15h-6.41Zm-7.77,0h6.4v10.15h-6.4Zm-7.78,0h6.41v10.15h-6.41Zm-7.77,0H1825v10.15h-6.41Z"/><path class="cls-2" d="M1818.24,344.79V356.4h78.15V344.79Zm70.36.73H1895v10.15h-6.41Zm-7.78,0h6.41v10.15h-6.43Zm-7.76,0h6.41v10.15h-6.41Zm-7.78,0h6.4v10.15h-6.4Zm-7.78,0H1864v10.15h-6.41Zm-7.78,0h6.41v10.15h-6.41Zm-7.78,0h6.41v10.15h-6.41Zm-7.77,0h6.4v10.15h-6.4Zm-7.78,0h6.41v10.15h-6.41Zm-7.77,0H1825v10.15h-6.41Z"/><path class="cls-2" d="M1818.24,378.6v11.61h78.15V378.6Zm70.36.73H1895v10.16h-6.41Zm-7.78,0h6.41v10.16h-6.43Zm-7.76,0h6.41v10.16h-6.41Zm-7.78,0h6.4v10.16h-6.4Zm-7.78,0H1864v10.16h-6.41Zm-7.78,0h6.41v10.16h-6.41Zm-7.78,0h6.41v10.16h-6.41Zm-7.77,0h6.4v10.16h-6.4Zm-7.78,0h6.41v10.16h-6.41Zm-7.77,0H1825v10.16h-6.41Z"/><path class="cls-2" d="M1818.24,412.42v11.64h73.48l.31-.73h-3.43V413.15H1895v2.53c.37-1.08.72-2.16,1-3.26Zm62.58.73h6.41V423.3h-6.43Zm-7.76,0h6.41V423.3h-6.41Zm-7.78,0h6.4V423.3h-6.4Zm-7.78,0H1864V423.3h-6.41Zm-7.78,0h6.41V423.3h-6.41Zm-7.78,0h6.41V423.3h-6.41Zm-7.77,0h6.4V423.3h-6.4Zm-7.78,0h6.41V423.3h-6.41Zm-7.77,0H1825V423.3h-6.41Z"/><path class="cls-2" d="M1818.24,446.21v11.61h48.84c.29-.23.54-.49.79-.72h-2.59V447h6.4v6.33l1.38-1.46V447h4.24c.21-.25.4-.5.61-.73Zm39.26.73H1864V457.1h-6.41Zm-7.78,0h6.41V457.1h-6.41Zm-7.78,0h6.41V457.1h-6.41Zm-7.77,0h6.4V457.1h-6.4Zm-7.78,0h6.41V457.1h-6.41Zm-7.77,0H1825V457.1h-6.41Z"/><path class="cls-2" d="M1818.24,480.05v7a2.43,2.43,0,0,0,.38-.13v-6.2H1825v3.77l1.36-.56v-3.18h6.41v.36c.75-.35,1.5-.71,2.23-1.08Z"/><path class="cls-2" d="M1305,302.57h0Zm48.69,210.78h0Zm52-105.91h0l.42-1.37C1405.91,406.53,1405.77,407,1405.64,407.44ZM1305,302.57h0Zm449.2-106.93v3.05H1790v-3.05ZM1353.66,513.35h0Zm52-105.91h0l.42-1.37C1405.91,406.53,1405.77,407,1405.64,407.44ZM1305,302.57h0Zm48.69,210.78h0Zm52-105.91h0l.42-1.37C1405.91,406.53,1405.77,407,1405.64,407.44Z"/><ellipse class="cls-2" cx="1819.31" cy="808.42" rx="39.2" ry="4.34"/><polygon class="cls-4" points="1610.54 538.53 1595.23 537.69 1594.19 493.7 1593.95 483.23 1610.11 480.25 1610.21 493.76 1610.54 538.53"/><polygon class="cls-5" points="1598.62 530.88 1519.91 579.81 1518.21 594.7 1526.72 595.13 1526.72 584.49 1578.2 555.56 1516.09 632.57 1516.09 644.48 1526.3 644.48 1525.44 631.29 1597.34 549.61 1606.28 550.46 1682.02 636.4 1683.72 650.87 1693.93 651.29 1692.23 636.4 1632.24 561.52 1672.23 589.17 1673.08 601.08 1681.17 601.51 1680.32 587.04 1604.15 528.32 1598.62 530.88"/><path class="cls-6" d="M1499.74,447.18A140.48,140.48,0,0,0,1518.28,417c5.42-12,11.36-25.81,11.81-29.91.89-7.66,22.55-23,46.37-23.82,15.54-.56,39.75-12.69,54.72-21.06A111.27,111.27,0,0,1,1677.1,328c17.52-1.32,34,2.12,25.7,22.46L1591.39,485.35s-95,16.75-100.88-10.17a21.91,21.91,0,0,0-1.35-3.95C1488.05,468.68,1487.76,462,1499.74,447.18Z"/><path class="cls-7" d="M1508.11,449.86a144.82,144.82,0,0,0,18.73-30.49c5.05-11.21,10.41-23.77,10.84-27.57.81-7.31,21.57-21.94,44.37-22.76,14.86-.53,38-12.11,52.34-20.11a106.84,106.84,0,0,1,43.95-13.51c16.76-1.26,32.53,2,24.62,21.45l-88.38,129.41s-109,15.46-114.79-10.13a25.79,25.79,0,0,0-1.35-4C1497.43,469.65,1497.29,463.44,1508.11,449.86Z"/><path class="cls-8" d="M1610.21,493.76c-5.12,0-10.52,0-16-.06l-.24-10.47,16.16-3Z"/><g class="cls-9"><polygon points="1672.23 586.62 1632.24 558.97 1636.82 564.68 1672.23 589.17 1673.08 601.08 1681.17 601.51 1681.02 598.95 1673.08 598.53 1672.23 586.62"/><polygon points="1526.72 581.94 1526.72 584.49 1574.43 557.68 1578.2 553.01 1526.72 581.94"/><polygon points="1516.09 641.93 1516.09 644.48 1526.3 644.48 1526.13 641.93 1516.09 641.93"/><polygon points="1526.72 592.58 1518.49 592.17 1518.21 594.7 1526.72 595.13 1526.72 592.58"/><polygon points="1683.72 648.32 1682.02 633.84 1606.28 547.9 1597.34 547.05 1525.44 628.74 1525.6 631.12 1597.34 549.61 1606.28 550.46 1682.02 636.4 1683.72 650.87 1693.93 651.29 1693.64 648.73 1683.72 648.32"/></g><path class="cls-8" d="M1601.17,409.93s19.93,14.57,11.21,14.74S1601.17,409.93,1601.17,409.93Z"/><path class="cls-6" d="M1517.57,489.64s33-2.55,45.31-26.37c0,0,25.1-49.79,45.53-55.32s58.29-17.87,74-37,22.35-33.83,22.35-33.83,4.06,15.5-8.73,33.76-17.45,46.4-26.38,76.23-12.34,41.66-28.51,43.43c-12.18,1.29-76.62.64-107.43,0C1523.66,490.26,1517.57,489.64,1517.57,489.64Z"/><path class="cls-10" d="M1517.57,489.64s33-2.55,45.31-26.37c0,0,25.1-49.79,45.53-55.32s58.29-17.87,74-37,22.35-33.83,22.35-33.83,4.06,15.5-8.73,33.76-17.45,46.4-26.38,76.23-12.34,41.66-28.51,43.43c-12.18,1.29-76.62.64-107.43,0C1523.66,490.26,1517.57,489.64,1517.57,489.64Z"/><path class="cls-6" d="M1525.87,489.64s31.52-2.47,43.31-25.54c0,0,24-48.2,43.52-53.55s55.71-17.31,70.76-35.85S1704.81,342,1704.81,342s3.86,15.07-8.34,32.75-16.67,44.91-25.21,73.75-11.79,40.37-27.25,42c-11.65,1.24-73.24.61-102.69,0C1531.69,490.28,1525.87,489.64,1525.87,489.64Z"/><path class="cls-8" d="M1500.34,477.24s17.23,6.59,27,3,34-14.25,34-14.25S1520.55,468.55,1500.34,477.24Z"/><path class="cls-11" d="M1615.55,786.88s-49.53-2.66-61.6-9.75S1524.79,770,1524.7,770l-197.21-43-82-19.5-14.62-1.92,48.3-55.27,1.47-.64,71.21-30.8s31.91,1.77,38.21,22.56A25.49,25.49,0,0,1,1391,646a26.06,26.06,0,0,1-5,18.2c-2.52,3.44-5.62,8.33-6.59,12.63-.55,2.42-.43,4.67.89,6.38a51.73,51.73,0,0,0,8.75,7c17.37,11.52,61.26,30.51,137.94,1.43,0,0,32.79-32.35,57.61-18.62S1615.55,786.88,1615.55,786.88Z"/><path class="cls-8" d="M1379.38,676.8c-.55,2.42-.43,4.67.88,6.38a52.2,52.2,0,0,0,8.76,7l-149.28,11.18,40.91-51.63,71.21-30.8s31.91,1.77,38.21,22.56A25.49,25.49,0,0,1,1391,646a26.06,26.06,0,0,1-5,18.2C1383.44,667.61,1380.35,672.5,1379.38,676.8Z"/><polygon class="cls-12" points="1233.54 473.56 1355.85 476.22 1355.85 622.63 1239.74 701.35 1211.82 675.64 1217.58 590.55 1211.82 511.23 1233.54 473.56"/><path class="cls-13" d="M1164,449.63l142.81-44a21.47,21.47,0,0,1,7.93-.89l341.15,24.9a161.07,161.07,0,0,1,81.24,28.66c22.08,15.57,44,39.47,54.07,75.67a144.58,144.58,0,0,1-1.46,81.39l-30.14,97.5s22.6-211.83-203-222.47Z"/><path class="cls-14" d="M1239.74,470.45V705.63s-39.13-5.51-46.09-13.15c-5.71-6.26-38.78-23.93-53.13-42.12-3.14-4-5.39-8-6.25-11.94-4.81-21.88-24.38-73.57-24.38-73.57l5.32-50.52,22.16-32.8,43-19.5h33.23Z"/><path class="cls-15" d="M1177.7,473.56s-63.61,39.88-49.69,104.06c1.13,5.23,2.12,10.49,2.76,15.81,2.55,20.75,17.81,80.4,109,107.92v6.2l-38.67-10.79-26.25-14.47-20-18-24.5-29.89-11.37-24.38-4.17-32.1-2.4-36.65,5.86-31.44L1132,489.4l16.84-13.09Z"/><path class="cls-8" d="M1239.74,470.45v37.42c-27.74,3-113.64,20.38-98.38,119.65l-.84,22.8c-3.15-4-5.4-8-6.26-11.94-4.81-21.87-24.38-73.57-24.38-73.57l5.32-50.52,22.16-32.79,43-19.5h33.24Z"/><path class="cls-16" d="M1386,664.17c-2.52,3.44-5.61,8.33-6.58,12.63-3.87-4.44-4.7-9.53.88-13.57,7-5.08,9.33-13.91,9.85-21.75A25.49,25.49,0,0,1,1391,646,26,26,0,0,1,1386,664.17Z"/><path class="cls-14" d="M1744.07,688.05l-16.84,57.17-38.11,37.23-47.87,9.75-74.45-13.3V514.33s12.85-8.42,14.18-8.42,37.23,5.76,37.23,5.76L1699.49,570l3.36,2.42,36.34,54.07Z"/><polygon class="cls-12" points="1566.8 503.25 1566.8 778.9 1573.98 780.19 1573.98 503.25 1566.8 503.25"/><path class="cls-8" d="M1701.08,588.34c-53.18-43.7-112.3-50.12-134.28-50.92v-23S1579.65,506,1581,506s37.23,5.76,37.23,5.76l81.28,58.3Z"/><path class="cls-11" d="M1555.57,485.52l-333.11-36.34-37.44-2a76.94,76.94,0,0,0-62.23,26c-19.5,22.43-34.24,62-12.71,129.9,0,0,22.45,88,131.18,107l315.92,71.59c7,1.58,13.92,3.54,20.74,5.77,28.69,9.42,125.87,33.83,171.64-49.15,15.69-28.45,20.39-61.63,14.35-93.56C1752.89,586.31,1711.29,487.19,1555.57,485.52Zm163.2,249c-42.72,69.59-130.75,48.88-157.22,40.71-6.48-2-13-3.75-19.67-5.17L1250,707.6c-100.55-16.52-121.31-93.39-121.31-93.39-17-50.52-9.56-83.12,4.16-103.75,14.37-21.6,39.38-33.69,65.3-32.37l34.5,1.77,298,39.8c6,.81,12.1,1.34,18.18,1.55,132.5,4.49,173.72,77.35,184.2,127.56C1739.17,678.12,1734.49,708.91,1718.77,734.49Z"/><path class="cls-17" d="M1021.93,633.64c10.91,7.3,27.48,3.83,27.48,3.83s25-11.83,32.37-11.83,25.34-7.32,25.34-7.32l-.61-4.92-1.83-14.85c11.37,8.86,24,5.8,30.23,5.16,6.69-.69,42.4-21.92,45.84-23.32a9.09,9.09,0,0,0,3.13-3.16h0a80.39,80.39,0,0,0,6-11h0c2.23-2,3.86-3.55,3.75-3.89s.89-2.94,2.19-5.85c5.07-.89,9.44-2.77,10.83-3.9a9.48,9.48,0,0,0,3.55-7.66s34.84-35.14,30.25-49.76,11.27-15,11.27-15,24.28-10.44,27.65-16.7c2.09-3.85,20.3-12.32,34-18.26l1.69-.72c5.32,11.65,32.33,2.66,37.65-2.25,5.63-5.22,22.16-7.65,22.16-7.65s.71-68.25,6-76.92c2.51-4.12,3.11-17.59,3-30.61v-1.38c7.39-1.44,25-4.79,33.14-5.59,5.18-.52,10.57-3.74,14.71-6.88l.49.61a10,10,0,0,0,4.49.74,6.93,6.93,0,0,0,4-.74c3.17-1.77,14.78-5.22,19-7s-.7-14.27-3.86-16.7-5.32-5.57-3.55-7-4.22-4.88-7.74-5.58-14.07-5.56-14.07-5.56-3.87-8-10.2-8-14.79-6.27-14.79-6.27c-.34-2.78-7-3.12-7-3.12s-25.34-19.5-29.56-17.06-15.83-3.83-15.83-3.83-14.25,1.6-17.6-1h0a4,4,0,0,0-.88-2.35c-.76-2.36-4.44-5.59-8-8.27a31.53,31.53,0,0,0,.41-5,19.68,19.68,0,0,0-.08-2.17v-.36l.5-4.9a10.13,10.13,0,0,1,1.23-4.61c.59-.89,1.47-1.64,2.13-2.52a5.62,5.62,0,0,0,.43-.65l.1-.18a5.28,5.28,0,0,0,.27-.53l.08-.17a7.75,7.75,0,0,0,.45-1.49v-.12c0-.23.08-.46.11-.7a.14.14,0,0,1,0-.09,15,15,0,0,0-.8-6c-1-3.29-2.7-6.46-2.88-9.89a31.08,31.08,0,0,0-.18-5.11c-.88-3.8-4.76-6.2-8.52-7.8-5.21-2.18-7.83-4.56-12-7.8-3.54-2.75-9.41-1.37-13.88-1.09-10.21.66-20.28,3.74-29.89,6.91-3.73,1.24-7.54,2.66-10.44,5.18a11.54,11.54,0,0,0-3.82,6.46h0a8.74,8.74,0,0,0-.12,1.77v.15a1.9,1.9,0,0,0,.08.67v.23a5.38,5.38,0,0,0,.2.79h0c.4,1.29,1.16,2.45,1.59,3.73a6.74,6.74,0,0,1,.24.88v.09a7.23,7.23,0,0,1,.14.89h0c.39,3.16-.78,6.47-1.29,9.69-.07.46-.13.89-.16,1.39h0a16.49,16.49,0,0,0,.49,5.55.09.09,0,0,0,0,.07c0,.22.13.44.2.65a1.61,1.61,0,0,0,.09.29c.06.18.14.37.21.54l.15.38c.07.16.15.32.23.48s.14.26.21.39a4.49,4.49,0,0,0,.24.42c.08.14.16.28.25.41s.17.26.27.38.2.27.31.41l.27.33.38.39.29.3.43.37.3.24c.11.07.37.26.55.37l.26.18a9.34,9.34,0,0,0,.89.46c2,.89,4.57,1.25,5.79,3a3.93,3.93,0,0,1,.59,1.38v.67a27.91,27.91,0,0,0,.18,3,11.41,11.41,0,0,0,.09,1.65,4.91,4.91,0,0,0,.34,1.19,31.6,31.6,0,0,0,10.64,17.92c.1.54.23,1.17.36,1.88a35.18,35.18,0,0,1-10.24,5.32c-8.44,2.47-20.38,13.88-20.38,13.88s-5.94,42.8-7.37,48-2.48,25.41-2.48,25.41-1.41,8.35-3.55,12.53c-1.49,2.94-1.22,15.59,3,23.27a19.45,19.45,0,0,1-2.59,4.22c-8.45,9.75-33.79,9.4-42.24,9.4-7.77,0-10.17,4.71-10.5,5.46-15.46,4.43-65.54,18.68-71.48,21.27-7,3.08-10.91,33.47-10.91,33.47s-14.71,50.45-14,57.06-4.92,25-4.92,25,0,20.82-2.39,22.23l-.07,0c-2.46,1-2.12,11.15-2.12,11.15s1.82.52,4.65,1.24c-.76,5.09-3.55,12.23-5.7,17.3-1.1-1.39-2.17-2-2.81-.36-1.78,4.44-28.15,35.76-34.84,35.76-3.19,0-8.45,2.6-11.92,6.12C1017.82,624.85,1016.21,629.82,1021.93,633.64Zm121-181.32c29.92,2.78,61.94-2.12,61.94-2.12s-2.46,8.73-4.57,12.22-8.11,23.32-8.11,27.47-9.5,40-12.31,41.76c-1.18.73-2.23,2.56-3.06,4.43a39.9,39.9,0,0,0-1.86,5.32c0,.9.12,1.76.23,2.58-2.1,1.92-4.32,3.94-6.3,5.73h0s-12.58,7-16.84,10.83-23.93,8.53-23.93,8.53a123.48,123.48,0,0,0-14.18,7.22c-6.11,3.68-12.21,8.36-13.81,13,.69-7.78,1.82-17.15,2.57-23.11l1.12,0c9.86-.61,8.39-10,7.87-12.36-.07-.33-.13-.52-.13-.52,7-7.66,22.87-64.7,20.76-71s1.77-11.83,2.6-11.83,2-7,.22-10.79S1143,452.32,1143,452.32Zm241.88-153.53-1.87.46v-.4S1383.66,298.85,1384.84,298.79ZM1282.6,246.27c-.29.36-.57.69-.89,1l-.36.37v-1.93C1281.77,245.9,1282.18,246.1,1282.6,246.27Zm-35.25,67.52.12,2s-.19,1.2-.54,3.25Zm161.71-19.44-6.14,1c.88-.33,1.73-.68,2.56-1.08a5.83,5.83,0,0,1,2-.53,11.17,11.17,0,0,1,2.28.49A3.7,3.7,0,0,0,1409.06,294.35Z"/><path class="cls-18" d="M1201.4,545.61s-7.09,14.63-6.73,15.67-15.2,13.45-15.2,13.45l-16.92-12.08,1.77-8.29s19-17.12,20.39-19.1S1201.4,545.61,1201.4,545.61Z"/><path class="cls-5" d="M1104.88,595.12c11.74,11.4,25.55,8,32.12,7.26s41.6-21.76,45-23.14a9.31,9.31,0,0,0,3.08-3.14h0a80,80,0,0,0,5.92-11c-.23.07-11.71,3.35-14.61,0,0,0-4.84-5.93-5.88-5.93s-.08-10.4-.08-10.4-12.35,7-16.49,10.75-23.49,8.46-23.49,8.46a117,117,0,0,0-13.9,7.17C1107.38,580.76,1098.16,588.64,1104.88,595.12Z"/><path class="cls-8" d="M1104.88,595.12c11.74,11.4,25.55,8,32.12,7.26s41.6-21.76,45-23.14a9.31,9.31,0,0,0,3.08-3.14c-4.09-2.44-30.79,14.53-38.26,17.64s-26.38,1.38-37.11-3.11c-5.32-2.24.07-9.13,6.82-15.45C1107.38,580.76,1098.16,588.64,1104.88,595.12Z"/><path class="cls-18" d="M1106.26,559.2s-4.92,37-3.67,41.8-30.87-16.58-30.87-16.58,11.24-23.16,8-28.48S1106.26,559.2,1106.26,559.2Z"/><path class="cls-19" d="M1075.52,559.9s20,5.86,31.08,5.17c9.67-.6,8.23-9.94,7.72-12.26-.07-.32-.12-.51-.12-.51,6.9-7.61,22.45-64.24,20.39-70.46s1.68-11.7,2.57-11.7,1.94-6.91.21-10.7,7.6-7.25,7.6-7.25c29.36,2.75,60.79-2.11,60.79-2.11s-2.42,8.67-4.49,12.12-8,23.14-8,27.28-9.33,39.72-12.09,41.45c-1.15.73-2.19,2.53-3,4.43a43.32,43.32,0,0,0-1.82,5.32c1,23.14,27.28,14.18,31.08,11.05a9.93,9.93,0,0,0,1.47-1.5,9.66,9.66,0,0,0,2-6.1s34.19-34.88,29.7-49.39,11.05-14.85,11.05-14.85,23.84-10.36,27.15-16.58c2-3.82,19.92-12.21,33.37-18.12,8.43-3.69,15.12-6.4,15.12-6.4l-5.6-20.08-4.43-15.84-8.31-3.12-26.59-10-47.71-6.69-4.37.57-46.34,6S1116.27,409,1109.36,412s-10.71,33.21-10.71,33.21-14.5,50.08-13.79,56.67-4.84,24.82-4.84,24.82,0,20.66-2.35,22.06h-.07C1075.17,549.92,1075.52,559.9,1075.52,559.9Z"/><path class="cls-8" d="M1144.94,452.14c29.35,2.76,60.78-2.11,60.78-2.11,2.08-6.53,31.11-24.49,31.11-24.49C1213,419.68,1144.94,452.14,1144.94,452.14Z"/><path class="cls-20" d="M1176.37,540.56c1,23.14,27.28,14.18,31.08,11.05a10,10,0,0,0,1.47-1.51c-9.17,3.38-25.43,6-30.73-14.83A42.89,42.89,0,0,0,1176.37,540.56Z"/><path class="cls-20" d="M1075.52,559.9s20,5.86,31.08,5.17c9.67-.6,8.23-9.94,7.72-12.26-10.14-.32-27.6-1.26-36.66-4h-.07C1075.17,549.92,1075.52,559.9,1075.52,559.9Z"/><path class="cls-8" d="M1176.37,540.56c1,23.14,27.28,14.18,31.08,11.05a10,10,0,0,0,1.47-1.51c-9.17,3.38-25.43,6-30.73-14.83A42.89,42.89,0,0,0,1176.37,540.56Z"/><path class="cls-8" d="M1075.52,559.9s20,5.86,31.08,5.17c9.67-.6,8.23-9.94,7.72-12.26-10.14-.32-27.6-1.26-36.66-4h-.07C1075.17,549.92,1075.52,559.9,1075.52,559.9Z"/><path class="cls-5" d="M1026.12,632.08c10.71,7.25,27,3.79,27,3.79s24.52-11.73,31.77-11.73,24.84-7.26,24.84-7.26l-.59-4.89-2.86-23.43s-26.9-.69-28-3.11c0,0-4.83-11.9-6.56-7.5s-27.63,35.45-34.19,35.45c-3.13,0-8.3,2.59-11.69,6.08C1022.11,623.36,1020.52,628.29,1026.12,632.08Z"/><path class="cls-8" d="M1119,428s22.45,14.19,16.24,17.27S1119,428,1119,428Z"/><path class="cls-8" d="M1109.68,455.25s19.34,18.36,12.09,18.85S1109.68,455.25,1109.68,455.25Z"/><path class="cls-8" d="M1089,513.58s9.82,18.46,6.13,21.66S1089,513.58,1089,513.58Z"/><path class="cls-8" d="M1197.09,532.27c-3.46,3.45,32.8-11.4,24.52-12.09S1197.09,532.27,1197.09,532.27Z"/><path class="cls-18" d="M1266.61,273.24l1.2-.18c4.41-.67,20.45-3.19,34.84-6.31,3.5-.77,6.9-1.57,10-2.39,11-2.88,18.41-6,13.69-8.55-6.24-3.39-9.53-9.54-11.26-14.83-.17-.52-.32-1-.47-1.53a40.11,40.11,0,0,1-1.43-8.21s-40.16-14.23-32.37,0c3.84,7,1.26,12.68-2.36,16.66a31.36,31.36,0,0,1-8.67,6.46Z"/><path class="cls-8" d="M1311.4,262.53s-14,10-28.22,1.73-32.91,73.22-32.91,73.22l-19.34,47.66S1218.41,395.5,1234,400s50.17-4.49,59,8.63,25.41,15.2,27.11,15.2,8.28-49.4,8.28-49.4l1.71-71.49Z"/><path class="cls-21" d="M1234.65,397.23c15.59,4.48,50.19-4.5,59,8.63a33.73,33.73,0,0,0,14.88,12,39,39,0,0,0,12.26,3.24c.22,0,.55-.88.93-2.47,2.43-10,7.35-46.92,7.35-46.92l1.7-71.49-16.4-35.59-2.25-4.86a29.53,29.53,0,0,1-7.09,3.47c-5.4,1.82-13.2,2.85-21.11-1.77-4.18-2.43-8.75,2.87-13.1,11.57-10.49,21-19.81,61.65-19.81,61.65l-19.36,47.72a14.15,14.15,0,0,0-1.31,1.26C1227.56,386.53,1222.41,393.7,1234.65,397.23Z"/><path class="cls-8" d="M1309,399.63a91.39,91.39,0,0,0-.46,18.19,213.87,213.87,0,0,0,3.25,25.7,10.69,10.69,0,0,0,.42,1.57c8.43-3.7,15.12-6.4,15.12-6.4l-5.6-20.09c2.43-10,7.35-46.92,7.35-46.92l1.7-71.49-16.4-35.57c10.69-2.8,17.87-5.82,13.29-8.31-6.65-3.6-9.85-10.44-11.39-15.88a57.75,57.75,0,0,1-9.79,10.57l-.22.17L1305,263.23l-.38,3.7-.8,7.69s3.81,90.83,6.56,96,1.39,15.19-1,26.93C1309.19,398.24,1309.11,398.92,1309,399.63Z"/><path class="cls-22" d="M1310.71,396.19c-2.41,11.74-.35,31.08,2.42,45.93s32.12,5.18,37.65,0,21.75-7.6,21.75-7.6.69-67.69,5.88-76.32c2.45-4.1,3-17.46,3-30.38-.05-11.59-.62-22.82-.84-26.59,0-.88-.08-1.37-.08-1.37s22.45-38,22.1-40.77-6.9-3.1-6.9-3.1-24.82-19.34-29-16.93-15.55-3.8-15.55-3.8-14.44,1.64-17.43-1.15a1.52,1.52,0,0,1-.53-1.27c.34-4.43-14.71-13.86-15.18-14.18,12.69,11.42-7.83,29-10.16,31l-.21.17-2.42,23.45s3.8,90.83,6.56,96S1313.13,384.44,1310.71,396.19Z"/><circle class="cls-20" cx="1312.05" cy="297.52" r="1.73"/><path class="cls-8" d="M1308.51,251l10.5,10.15,15.37-25.71a1.55,1.55,0,0,1-.53-1.27c.34-4.43-14.72-13.86-15.18-14.18C1331.36,231.47,1310.88,249.06,1308.51,251Z"/><circle class="cls-8" cx="1315.51" cy="352.78" r="1.73"/><circle class="cls-20" cx="1315.51" cy="352.08" r="1.73"/><path class="cls-5" d="M1307.82,249.61l10.5,10.15,15.37-25.7a1.55,1.55,0,0,1-.53-1.27c.34-4.43-14.71-13.86-15.18-14.18C1330.67,230.09,1310.15,247.67,1307.82,249.61Z"/><rect class="cls-23" x="1284.14" y="309.16" width="50.79" height="24.04" rx="1.51" ry="1.51" transform="translate(958.5 1623.03) rotate(-88.69)"/><rect class="cls-24" x="1284.27" y="310.29" width="50.79" height="24.04" rx="1.51" ry="1.51" transform="translate(957.5 1624.25) rotate(-88.69)"/><circle class="cls-25" cx="1310.29" cy="311.79" r="3.78"/><path class="cls-8" d="M1180.16,393.08c8.63,3.8,65.28-6.21,73.57-8.64s20.38-21.06,14.51-34.56,2.06-26.59,2.06-26.59,12.41-26.59,15.2-31.78,8.53-20.26,9.33-22.79a2.07,2.07,0,0,0-.49-1.58c-2.25-3.4-10.94-9.44-10.94-9.44-2.43.88-2.74-6.11-2.66-11.24.06-2.87.23-5.16.23-5.16s-1.15,1.16-3,2.75c-.68.57-1.46,1.21-2.33,1.87a35.92,35.92,0,0,1-10.83,6c-8.29,2.45-20,13.77-20,13.77l3.45,53s-8,49.88-16.23,59.55-33.16,9.33-41.45,9.33S1180.16,393.08,1180.16,393.08Z"/><path class="cls-22" d="M1179.47,391c8.63,3.8,65.28-6.2,73.57-8.64s20.38-21.07,14.51-34.57,2.06-26.59,2.06-26.59,12.41-26.59,15.2-31.77,8.53-20.26,9.33-22.79a2.14,2.14,0,0,0-.49-1.59c-2.27-3.38-10.91-9.41-10.91-9.41-2.44.89-2.74-6.1-2.66-11.23.05-2.88.22-5.17.22-5.17s-1.14,1.16-3,2.76c-.69.57-1.47,1.2-2.33,1.86a36,36,0,0,1-10.89,5.95c-8.29,2.45-20,13.77-20,13.77l3.46,53s-8,49.88-16.24,59.55-33.15,9.33-41.45,9.33S1179.47,391,1179.47,391Z"/><path class="cls-8" d="M1273.41,240.58s.33,1.82.89,4.62c1.86,9.48,6.29,30.19,9.49,29.39,2.3-.57,6.21-4.63,9.18-8.14-2.24-3.43-10.91-9.47-10.91-9.47-2.43.89-2.73-6.1-2.65-11.23l-2.8-2.41Z"/><path class="cls-5" d="M1274.1,239.23s.33,1.81.89,4.61c1.86,9.49,6.29,30.19,9.49,29.4,2.3-.58,6.21-4.64,9.19-8.15-2.29-3.41-10.93-9.44-10.93-9.44-2.44.89-2.74-6.1-2.66-11.23l-2.79-2.41Z"/><path class="cls-18" d="M1252,340.93s17.27-3.45,22.1-11.05,37.74-14.18,33.69-6.2-33.69,33.93-33.69,33.93L1261.24,376l-17.17-4.36-7.24-14.08Z"/><path class="cls-8" d="M1292.86,360.64s-16.73,6.2-19.24,14.5S1292.86,360.64,1292.86,360.64Z"/><path class="cls-8" d="M1303.11,370.29s1.53,8.62-19.43,8Z"/><path class="cls-8" d="M1393.6,259.76l7.61-.69s8.28,6.21,14.5,6.21,10,8,10,8,10.36,4.84,13.82,5.53,9.32,4.14,7.6,5.53.34,4.49,3.45,6.9,8,14.86,3.8,16.58-15.54,5.18-18.62,6.91-6.9,0-6.9,0-18.3-23.84-27.63-19.34-22.11,4.47-22.11,4.47l-10-21.06Z"/><path class="cls-22" d="M1234.65,373.41c1.63,2.43,3.74,4.13,6.45,4.48a48.71,48.71,0,0,0,20.11-1.87s-34.79-11-1.3-37.92h-9l-3-1.14,1.36-7.15,2-64.52-7.25-1.72s-5.84,42.48-7.23,47.65-2.44,25.22-2.44,25.22-1.38,8.29-3.46,12.41C1229.34,352,1229.77,366,1234.65,373.41Z"/><path class="cls-8" d="M1236.06,373.41c1.62,2.43,3.74,4.13,6.45,4.48a48.71,48.71,0,0,0,20.11-1.87s-34.79-11-1.3-37.94h-8.94l-3-1.13C1244.4,345.68,1236.69,361.18,1236.06,373.41Z"/><path class="cls-26" d="M1234.65,373.41c1.63,2.43,3.74,4.13,6.45,4.48a48.71,48.71,0,0,0,20.11-1.87s-34.79-11-1.3-37.92h-9l-3-1.14C1243.06,345.68,1235.31,361.18,1234.65,373.41Z"/><path class="cls-5" d="M1234.65,373.41c1.63,2.43,3.74,4.13,6.45,4.48a48.71,48.71,0,0,0,20.11-1.87s-34.79-11-1.3-37.92h-9l-3-1.14C1243.06,345.68,1235.31,361.18,1234.65,373.41Z"/><path class="cls-8" d="M1281.13,248.67a31.45,31.45,0,0,0,35.57-6.76c-.16-.5-.31-1-.45-1.48a38.44,38.44,0,0,1-1.39-8s-39-13.81-31.43,0C1287.16,239.26,1284.65,244.79,1281.13,248.67Z"/><path class="cls-18" d="M1262.71,218.66V219c0,1,.07,2,.17,3s.25,1.89.43,2.82a31.43,31.43,0,0,0,60.55,4.06c.22-.61.4-1.22.57-1.84a31.25,31.25,0,0,0,1.14-8.38,19.32,19.32,0,0,0-.08-2.15,31.43,31.43,0,0,0-62.78,2.15Z"/><path class="cls-8" d="M1262.71,219a13.35,13.35,0,0,1,.17,3,11.35,11.35,0,0,0,.09,1.64,4.54,4.54,0,0,0,.34,1.18c1.27,3,5.41,4.91,8.15,3a8.59,8.59,0,0,0,2.45-3.21c2.91-5.4,6.94-11.6,13.29-11.71,2.72,0,5.26,1.09,7.88,1.78s5.73.74,7.68-1c1.51-1.38,2.22-3.71,4.23-4.19s3.87,1.36,4.79,3.17,1.66,3.93,3.55,4.87c.83.41,1.77.54,2.66,1,3.76,2.06,2,9.26,5.93,10.43a2.22,2.22,0,0,0,.37.09c.06-.64.13-1.29.19-1.93q.54-5.27,1.06-10.53a31.43,31.43,0,0,0-62.78,2.15Z"/><path class="cls-27" d="M1318.54,171.75c3.69,1.57,7.54,4,8.36,7.75a30.44,30.44,0,0,1,.18,5.06c.18,3.4,1.77,6.56,2.83,9.82s1.41,7.09-.67,9.84c-.64.88-1.5,1.58-2.09,2.49a10.21,10.21,0,0,0-1.2,4.62l-1.71,17c-4.38-.82-2.43-8.42-6.31-10.53-.81-.44-1.78-.56-2.62-1-1.87-.89-2.6-3.06-3.54-4.87s-2.75-3.66-4.8-3.17-2.72,2.83-4.22,4.19c-2,1.78-5.07,1.7-7.68,1s-5.17-1.77-7.87-1.77c-6.37.1-10.41,6.31-13.3,11.71a8.8,8.8,0,0,1-2.45,3.21c-3.09,2.17-8-.56-8.49-4.18-.3-2,.34-4.29-.83-6s-3.7-2.08-5.68-3c-5-2.33-6.61-8.63-5.78-13.91.61-3.81,2.13-7.73.89-11.4-.44-1.27-1.17-2.42-1.57-3.69-1.11-3.54.7-7.48,3.54-10s6.58-3.92,10.25-5.14c9.42-3.17,19.31-6.21,29.34-6.86,4.38-.29,10.14-1.66,13.62,1.08C1310.88,167.22,1313.43,169.59,1318.54,171.75Z"/><circle class="cls-8" cx="1310.32" cy="270.23" r="1.73"/><circle class="cls-20" cx="1310.32" cy="269.54" r="1.73"/><circle class="cls-8" cx="1321.37" cy="378.68" r="1.73"/><circle class="cls-20" cx="1321.37" cy="377.99" r="1.73"/><circle class="cls-8" cx="1315.51" cy="407.35" r="1.73"/><circle class="cls-20" cx="1315.51" cy="406.66" r="1.73"/><path class="cls-8" d="M1256.15,297.52s-3.8,25.79,0,30.29S1256.15,297.52,1256.15,297.52Z"/><path class="cls-8" d="M1369.09,345.42s7.25,15.63,0,30.6-11.75,21.07-9.33,30.64S1369.09,345.42,1369.09,345.42Z"/><path class="cls-8" d="M1026.12,632.08c10.71,7.25,27,3.79,27,3.79s24.52-11.73,31.77-11.73,24.84-7.26,24.84-7.26l-.59-4.89c-7.16,1.38-23.43,4.67-25.31,6.27-2.42,2.08-32.12,12.09-32.12,12.09s-20.23-2.53-25.85-10.84C1022.11,623.36,1020.52,628.29,1026.12,632.08Z"/><g class="cls-9"><path d="M1327.08,181.79V182A.48.48,0,0,0,1327.08,181.79Z"/><path d="M1256.46,211.17c2,.89,4.43,1.24,5.68,3s.53,4,.83,6c.53,3.62,5.4,6.35,8.48,4.18a8.75,8.75,0,0,0,2.46-3.22c2.9-5.39,6.94-11.6,13.29-11.7,2.72-.05,5.26,1.1,7.88,1.77s5.73.74,7.69-1c1.5-1.36,2.21-3.71,4.22-4.19s3.86,1.36,4.79,3.17,1.66,3.94,3.55,4.88c.83.41,1.77.53,2.61,1,3.89,2.12,1.94,9.75,6.31,10.53q.88-8.5,1.71-17a10.14,10.14,0,0,1,1.21-4.57c.58-.89,1.44-1.63,2.09-2.5a7.67,7.67,0,0,0,1.42-3.65,8.81,8.81,0,0,1-1.42,6.41c-.65.89-1.51,1.59-2.09,2.5a10.07,10.07,0,0,0-1.22,4.61q-.89,8.5-1.71,17c-4.38-.82-2.43-8.42-6.31-10.53-.81-.44-1.78-.56-2.62-1-1.87-.89-2.6-3.06-3.54-4.87s-2.75-3.66-4.8-3.17-2.72,2.83-4.22,4.19c-2,1.78-5.07,1.7-7.68,1s-5.17-1.77-7.88-1.77c-6.36.1-10.4,6.31-13.3,11.71a8.69,8.69,0,0,1-2.45,3.21c-3.09,2.17-8-.56-8.49-4.18-.3-2,.34-4.29-.83-6s-3.7-2.08-5.68-3c-4.62-2.13-6.32-7.58-5.93-12.54C1250.86,205.48,1252.69,209.44,1256.46,211.17Z"/><path d="M1250,182.17c.4,1.27,1.13,2.43,1.57,3.69a10.77,10.77,0,0,1,.39,4.55,9,9,0,0,0-.39-1.78c-.44-1.26-1.17-2.42-1.57-3.68a7.88,7.88,0,0,1-.21-3.61A5.93,5.93,0,0,0,1250,182.17Z"/></g><path class="cls-28" d="M1444.84,466.64l-71.19-8.9a2.74,2.74,0,0,1-2.37-3,2.82,2.82,0,0,1,.75-1.56l29.86-31a2.71,2.71,0,0,1,2.27-.81l54.43,6.1a2.71,2.71,0,0,1,2.4,3,2.61,2.61,0,0,1-.17.68l-13.1,33.85A2.72,2.72,0,0,1,1444.84,466.64Z"/><path class="cls-8" d="M1444.84,466.64l-71.19-8.9a2.74,2.74,0,0,1-2.37-3,2.82,2.82,0,0,1,.75-1.56l29.86-31a2.71,2.71,0,0,1,2.27-.81l54.43,6.1a2.71,2.71,0,0,1,2.4,3,2.61,2.61,0,0,1-.17.68l-13.1,33.85A2.72,2.72,0,0,1,1444.84,466.64Z"/><path class="cls-28" d="M1444,465.85l-71.18-9a2.73,2.73,0,0,1-1.62-4.6l29.86-31a2.75,2.75,0,0,1,2.27-.82l54.42,6.09a2.72,2.72,0,0,1,2.24,3.7l-13.11,33.85A2.75,2.75,0,0,1,1444,465.85Z"/><path class="cls-23" d="M1401.61,433.43l21.38,1.72,30.49-2H1453l-28.25-2.73c-6.47-2.38-2-16.37-2-16.37l-21.64,1.1-1.73.09C1391.71,433.17,1401.61,433.43,1401.61,433.43Z"/><path class="cls-8" d="M1401.61,433.43l21.38,1.72,30.49-2H1453l-30.83,1.1L1401.48,432c-5.87-1.54-2.51-11.71-.39-16.84l-1.73.09C1391.71,433.17,1401.61,433.43,1401.61,433.43Z"/><path class="cls-29" d="M1364.17,306.3l6.54,93.82.88,12.32a5.33,5.33,0,0,0,5.37,5h2l98.47-.6a2.76,2.76,0,0,0,2.74-2.8,1.93,1.93,0,0,0,0-.24l-.88-12.32-6.94-82.5a5.65,5.65,0,0,0-3.78-4.78l-93.85-14.08c-3.2-1.11-6.45-.72-8.48,1A5.92,5.92,0,0,0,1364.17,306.3Z"/><path class="cls-24" d="M1370.71,400.12l.88,12.32a5.33,5.33,0,0,0,5.37,5h2l98.47-.6a2.76,2.76,0,0,0,2.74-2.8,1.93,1.93,0,0,0,0-.24l-.88-12.32Z"/><ellipse class="cls-25" cx="1436.72" cy="410.33" rx="1.32" ry="2.64"/><path class="cls-23" d="M1432.89,445.44s-26.92-10.16-34.18-2.77c0,0-1.19,2.25,3.69,2.77l19.73,1.59S1430.25,447.82,1432.89,445.44Z"/><path class="cls-24" d="M1432.17,442.8c-5.31-2.16-21.21-7.75-31.4-1.57,0,0,11.28-1.25,17.47,2.33s14.65,1.88,14.65,1.88l.13-.22a1.71,1.71,0,0,0-.66-2.33Z"/><path class="cls-24" d="M1364.17,306.3l7.39,106.15a5.32,5.32,0,0,0,5.37,5h2a19,19,0,0,1-3.43-4.44s-7.26-106.66-7.8-109.3a5.43,5.43,0,0,0-1.46-2.61A6,6,0,0,0,1364.17,306.3Z"/><path class="cls-8" d="M1364.17,306.3l7.39,106.15a5.32,5.32,0,0,0,5.37,5h2a19,19,0,0,1-3.43-4.44s-7.26-106.66-7.8-109.3a5.43,5.43,0,0,0-1.46-2.61A6,6,0,0,0,1364.17,306.3Z"/><path class="cls-8" d="M1351.46,335.73c8-1.77,26.59-7.23,26.59-7.23l3.34-.68c-.05-11.59-.62-22.82-.84-26.59h-.08s-15.89,5.19-19.68,8-15.55,2.07-15.55,2.07-18.29,1-33.47,17.94S1343.52,337.48,1351.46,335.73Z"/><path class="cls-18" d="M1429.1,304.91a4.63,4.63,0,0,1,1,7.75c-4.21,3.48-10.36,7.65-16.22,8.23-9.75,1-33.33,5.71-35.67,6.21a2.22,2.22,0,0,0-.37.09c-1.94.56-18.93,5.54-26.42,7.18-8,1.77-55,10.38-39.71-6.55,14-15.58,30.6-17.72,33.16-17.93h.62c1.77.08,11.8.43,15.27-2.08a32.33,32.33,0,0,1,5.71-2.84,109.09,109.09,0,0,1,23.35-6.74l16.25-2.84a4.67,4.67,0,0,1,2.73.36Z"/><path class="cls-22" d="M1395,259.76l7.6-.69s8.3,6.21,14.51,6.21,10,8,10,8,10.37,4.84,13.82,5.53,9.33,4.14,7.6,5.53.34,4.49,3.46,6.9,8,14.86,3.79,16.58-15.54,5.18-18.61,6.91-6.91,0-6.91,0-18.33-23.85-27.66-19.36-22.11,4.49-22.11,4.49l-10-21.06Z"/><path class="cls-6" d="M1849.77,694.07a15,15,0,0,0-2,3.8c-.13.33-.25.71-.37,1.07a4.45,4.45,0,0,0-.7-.24,9.89,9.89,0,0,0-3.16-.27,9.72,9.72,0,0,1,.06-1.3c.12-4.67-.43-11.18-4.88-8.42-4.28,2.66-1.23,7.09,1.53,9.92l.71.7c-2.51,1.78-3,6-3.42,10.32s-4.11,9.11-6.56,11.82c-.24.28-.47.52-.69.75a9,9,0,0,0-7.09-1.83l-.33-1.2c-2-7.17-6.1-19.59-11.36-22.31.22-.28.45-.56.69-.89,2.24-2.91,4.75-7.26,1-8.36s-4,3.76-3.84,7.41a7.68,7.68,0,0,0,.11,1.3,5.44,5.44,0,0,0-3.89,1.9l-.57-.69c-3-3.54-8.54-9.19-10.21-4.92-1.56,4,3.31,9.12,6.73,12.11l.21.19c-2.3,9.31,7.73,16.91,13.13,20.23l.69.43c-7.45,8.77-12,25.22-12,25.22l20.85,3.73s13.82-11.93,12-23.14h.15c13.8-2.76,17-17.49,14.8-26.23l.25-.11a15.71,15.71,0,0,0,6.39-4.84C1861.85,694.86,1853.74,688.8,1849.77,694.07Z"/><path class="cls-8" d="M1849.77,694.07a15,15,0,0,0-2,3.8c-.13.33-.25.71-.37,1.07a4.45,4.45,0,0,0-.7-.24,9.89,9.89,0,0,0-3.16-.27,9.72,9.72,0,0,1,.06-1.3c.12-4.67-.43-11.18-4.88-8.42-4.28,2.66-1.23,7.09,1.53,9.92l.71.7c-2.51,1.78-3,6-3.42,10.32s-4.11,9.11-6.56,11.82c-.24.28-.47.52-.69.75a9,9,0,0,0-7.09-1.83l-.33-1.2c-2-7.17-6.1-19.59-11.36-22.31.22-.28.45-.56.69-.89,2.24-2.91,4.75-7.26,1-8.36s-4,3.76-3.84,7.41a7.68,7.68,0,0,0,.11,1.3,5.44,5.44,0,0,0-3.89,1.9l-.57-.69c-3-3.54-8.54-9.19-10.21-4.92-1.56,4,3.31,9.12,6.73,12.11l.21.19c-2.3,9.31,7.73,16.91,13.13,20.23l.69.43c-7.45,8.77-12,25.22-12,25.22l20.85,3.73s13.82-11.93,12-23.14h.15c13.8-2.76,17-17.49,14.8-26.23l.25-.11a15.71,15.71,0,0,0,6.39-4.84C1861.85,694.86,1853.74,688.8,1849.77,694.07Z"/><path class="cls-6" d="M1808.27,700.08l-2.44,7.13s-1.35-1-3.06-2.46c-3.42-3-8.29-8.15-6.73-12.12,1.67-4.26,7.2,1.37,10.21,4.93C1807.47,699,1808.27,700.08,1808.27,700.08Z"/><path class="cls-6" d="M1813.43,696a32.08,32.08,0,0,1-2.39,2.82,33.8,33.8,0,0,1-.43-3.76c-.21-3.64.17-8.5,3.83-7.41S1815.65,693.09,1813.43,696Z"/><path class="cls-6" d="M1844.86,697.13c-.08,2.35-.32,4.23-.32,4.23a31.36,31.36,0,0,1-3-2.73c-2.75-2.85-5.8-7.27-1.52-9.92C1844.46,686,1845,692.46,1844.86,697.13Z"/><path class="cls-6" d="M1859.25,700.2a15.71,15.71,0,0,1-6.39,4.84,16.22,16.22,0,0,1-2.15.78l-2.87-4a28.53,28.53,0,0,1,1.19-3.92,14.73,14.73,0,0,1,2-3.8C1855,688.8,1863.12,694.86,1859.25,700.2Z"/><path class="cls-8" d="M1806.25,697.56c1.22,1.42,2,2.52,2,2.52l-2.44,7.13s-1.35-1-3.06-2.46a14,14,0,0,1,2.74-6.27C1805.76,698.15,1806,697.85,1806.25,697.56Z"/><path class="cls-8" d="M1813.43,696a32.08,32.08,0,0,1-2.39,2.82,33.8,33.8,0,0,1-.43-3.76A4.94,4.94,0,0,1,1813.43,696Z"/><path class="cls-6" d="M1825.4,724.33l-6.06,2.66a36.69,36.69,0,0,1-3.23-1.83c-6.37-3.91-19.19-13.78-10.64-25.41s15.76,9.23,18.62,19.43C1825,722.24,1825.4,724.33,1825.4,724.33Z"/><path class="cls-8" d="M1841.5,698.63a5.07,5.07,0,0,1,3.36-1.5c-.08,2.35-.32,4.23-.32,4.23A31.36,31.36,0,0,1,1841.5,698.63Z"/><path class="cls-8" d="M1852.86,705a19.64,19.64,0,0,1-2.15.78l-2.87-4a28.53,28.53,0,0,1,1.19-3.92C1850.88,699,1852.25,701.65,1852.86,705Z"/><path class="cls-6" d="M1837.81,731.38c-.34.08-.67.14-1,.19-20.32,3.09-6.7-7.88-6.7-7.88s.88-.84,2.15-2.22c2.45-2.66,6.14-7.44,6.56-11.82.64-6.58,1.38-12.76,9.16-10.95C1855.59,700.49,1857,727.54,1837.81,731.38Z"/><rect class="cls-30" x="1798.6" y="781.99" width="38.83" height="10.21"/><rect class="cls-30" x="1792.43" y="748.8" width="50.73" height="35.63"/><rect class="cls-8" x="1798.6" y="781.99" width="38.83" height="10.21"/><rect class="cls-8" x="1792.43" y="748.8" width="50.73" height="35.63"/><rect class="cls-30" x="1801.15" y="781.99" width="38.83" height="10.21"/><path class="cls-8" d="M1824.07,719.21c.89,3,1.31,5.14,1.31,5.14l-6.06,2.66c-1.11-.56-2.18-1.17-3.23-1.83C1818.49,722.16,1821.16,719.89,1824.07,719.21Z"/><path class="cls-8" d="M1837.81,731.38c-.34.08-.67.14-1,.19-20.32,3.09-6.7-7.88-6.7-7.88s.88-.84,2.15-2.22C1836,724.52,1837.6,727.93,1837.81,731.38Z"/><path class="cls-6" d="M1804.77,750.82s11.38-40.77,27.33-28.18-6.49,31.9-6.49,31.9Z"/><circle class="cls-8" cx="1810.51" cy="706.14" r="1.28"/><circle class="cls-8" cx="1810.4" cy="712.1" r="1.28"/><circle class="cls-8" cx="1847.42" cy="707.31" r="1.28"/><circle class="cls-8" cx="1817.64" cy="737.85" r="1.28"/><circle class="cls-8" cx="1844.76" cy="717.2" r="1.28"/><circle class="cls-8" cx="1831.57" cy="730.4" r="1.28"/><circle class="cls-8" cx="1814.87" cy="708.69" r="1.28"/><circle class="cls-8" cx="1843.91" cy="711.14" r="1.28"/><circle class="cls-8" cx="1839.55" cy="721.03" r="1.28"/><circle class="cls-8" cx="1826.14" cy="736.89" r="1.28"/><circle class="cls-8" cx="1823.38" cy="730.61" r="1.28"/><circle class="cls-8" cx="1816.78" cy="716.46" r="1.28"/><rect class="cls-8" x="1801.15" y="781.99" width="38.83" height="3.73"/><rect class="cls-30" x="1794.98" y="748.8" width="50.73" height="35.63"/><circle class="cls-8" cx="1827.85" cy="742.63" r="1.28"/><circle class="cls-8" cx="1820.19" cy="744.23" r="1.28"/></svg>